<mxfile host="app.diagrams.net" modified="2021-05-10T08:32:20.670Z" agent="5.0 (Windows NT 10.0; Win64; x64) AppleWebKit/537.36 (KHTML, like Gecko) Chrome/90.0.4430.93 Safari/537.36" etag="VYQS6ZaC3TarShFbNaX1" version="14.6.11" type="github">
  <diagram id="g7Ju-ufhbyGrkyC6rtZG" name="Page-1">
    <mxGraphModel dx="1278" dy="548" grid="1" gridSize="10" guides="1" tooltips="1" connect="1" arrows="1" fold="1" page="1" pageScale="1" pageWidth="827" pageHeight="1169" math="0" shadow="0">
      <root>
        <mxCell id="0" />
        <mxCell id="1" parent="0" />
        <mxCell id="t-17FtWMFqhLGqooa-JM-1" value="Actor" style="shape=umlActor;verticalLabelPosition=bottom;verticalAlign=top;html=1;outlineConnect=0;" vertex="1" parent="1">
          <mxGeometry x="400" y="250" width="30" height="60" as="geometry" />
        </mxCell>
        <mxCell id="t-17FtWMFqhLGqooa-JM-2" value="Actor" style="shape=umlActor;verticalLabelPosition=bottom;verticalAlign=top;html=1;" vertex="1" parent="1">
          <mxGeometry x="510" y="260" width="30" height="60" as="geometry" />
        </mxCell>
        <mxCell id="t-17FtWMFqhLGqooa-JM-3" value="" style="html=1;points=[];perimeter=orthogonalPerimeter;" vertex="1" parent="1">
          <mxGeometry x="260" y="150" width="10" height="80" as="geometry" />
        </mxCell>
        <mxCell id="t-17FtWMFqhLGqooa-JM-4" value="dispatch" style="html=1;verticalAlign=bottom;startArrow=oval;endArrow=block;startSize=8;" edge="1" target="t-17FtWMFqhLGqooa-JM-3" parent="1">
          <mxGeometry relative="1" as="geometry">
            <mxPoint x="200" y="150" as="sourcePoint" />
          </mxGeometry>
        </mxCell>
        <mxCell id="t-17FtWMFqhLGqooa-JM-5" value="" style="html=1;points=[];perimeter=orthogonalPerimeter;" vertex="1" parent="1">
          <mxGeometry x="110" y="60" width="10" height="80" as="geometry" />
        </mxCell>
        <mxCell id="t-17FtWMFqhLGqooa-JM-6" value="" style="shape=umlLifeline;participant=umlActor;perimeter=lifelinePerimeter;whiteSpace=wrap;html=1;container=1;collapsible=0;recursiveResize=0;verticalAlign=top;spacingTop=36;outlineConnect=0;" vertex="1" parent="1">
          <mxGeometry x="180" y="20" width="20" height="460" as="geometry" />
        </mxCell>
      </root>
    </mxGraphModel>
  </diagram>
</mxfile>
